<svg width="197" height="40" viewBox="0 0 197 40" fill="none" xmlns="http://www.w3.org/2000/svg">
<path d="M34.9988 30.869V11.3507C34.9988 9.8315 35.5372 8.52386 36.6333 7.42776C37.7294 6.33165 39.0371 5.79321 40.5562 5.79321H46.1521C47.6713 5.79321 48.9789 6.35088 50.075 7.44699C51.1711 8.54309 51.7096 9.85073 51.7096 11.3699V30.8883H46.1521V19.7349H40.5562V30.8883H34.9988V30.869ZM40.5562 16.9466H46.1521V11.3507C46.1521 10.6007 45.8829 9.94688 45.3253 9.38921C44.7676 8.85077 44.1138 8.58155 43.3638 8.58155C42.6138 8.58155 41.9408 8.85077 41.3831 9.38921C40.8254 9.92765 40.5562 10.5815 40.5562 11.3507V16.9466Z" fill="white"/>
<path d="M62.8252 16.9461H71.1902V25.3112C71.1902 27.1572 70.5941 28.5418 69.4019 29.4841C68.2096 30.4071 66.9597 30.8878 65.6136 30.8878H60.0177C58.4985 30.8878 57.1909 30.3494 56.0947 29.2533C54.9986 28.1572 54.4602 26.8496 54.4602 25.3304V11.3695C54.4602 9.86953 54.9986 8.56189 56.0755 7.46579C57.1524 6.35045 58.46 5.81201 60.0177 5.81201H65.6136C69.1134 5.81201 70.9787 7.65809 71.171 11.3695H68.3827C68.1711 9.52339 67.2481 8.60035 65.6136 8.60035H62.8252C62.056 8.60035 61.4022 8.86957 60.8445 9.40801C60.2869 9.94645 60.0177 10.6003 60.0177 11.3695V25.3304C60.0177 26.0996 60.2869 26.7534 60.8445 27.2918C61.4022 27.8303 62.056 28.0995 62.8252 28.0995C64.5944 28.0034 65.5366 27.0803 65.6136 25.3304V19.7345H62.8252V16.9654V16.9461Z" fill="white"/>
<path d="M73.9392 30.8678V5.79199H85.0926C86.6117 5.79199 87.9194 6.34966 89.0155 7.44577C90.1116 8.54187 90.65 9.84951 90.65 11.3687V12.8878C90.65 14.1378 90.227 15.33 89.3616 16.4838C88.5155 17.6376 87.0733 18.2145 85.0733 18.2145H87.8424C88.6116 18.2145 89.2655 18.4837 89.8231 19.0414C90.3808 19.5991 90.65 20.2529 90.65 21.0221V30.9063H85.0926V22.5413C85.0926 21.7721 84.8234 21.1182 84.2657 20.5606C83.708 20.0029 83.0542 19.7337 82.3042 19.7337H79.5159V30.8871H73.9584L73.9392 30.8678ZM79.5159 16.9454H82.3042C83.0542 16.9454 83.708 16.6761 84.2657 16.1185C84.8234 15.5608 85.0926 14.907 85.0926 14.157V11.3687C85.0926 10.6187 84.8234 9.96489 84.2657 9.40722C83.708 8.86878 83.0542 8.59956 82.3042 8.59956H79.5159V16.9646V16.9454Z" fill="white"/>
<path d="M98.9781 5.79199H104.574C106.093 5.79199 107.401 6.34966 108.497 7.44577C109.593 8.54187 110.131 9.84951 110.131 11.3687V25.3296C110.131 26.8295 109.593 28.1372 108.497 29.2333C107.401 30.3294 106.093 30.8871 104.574 30.8871H98.9781C97.4589 30.8871 96.1513 30.3486 95.0552 29.2525C93.9591 28.1564 93.4207 26.8488 93.4207 25.3296V11.3687C93.4207 9.84951 93.9591 8.54187 95.0552 7.44577C96.1513 6.34966 97.4589 5.81122 98.9781 5.81122V5.79199ZM98.9781 11.3494V25.3104C98.9781 26.0603 99.2473 26.7142 99.7858 27.2526C100.324 27.8103 100.997 28.0795 101.766 28.0795C102.536 28.0795 103.209 27.8103 103.747 27.2526C104.286 26.6949 104.555 26.0603 104.555 25.3104V11.3494C104.555 10.5995 104.286 9.94566 103.728 9.38799C103.17 8.84955 102.516 8.58033 101.766 8.58033C101.016 8.58033 100.343 8.84955 99.7858 9.38799C99.2281 9.92643 98.9589 10.5802 98.9589 11.3494H98.9781Z" fill="white"/>
<path d="M115.668 30.8678V8.58033H110.111V5.79199H126.841V8.58033H121.283V30.8678H115.687H115.668Z" fill="white"/>
<path d="M126.803 30.8678V5.79199H137.956C139.475 5.79199 140.783 6.34966 141.879 7.44577C142.975 8.54187 143.514 9.84951 143.514 11.3687V12.8878C143.514 14.1378 143.09 15.33 142.225 16.4838C141.379 17.6376 139.937 18.2145 137.937 18.2145H140.706C141.475 18.2145 142.129 18.4837 142.687 19.0414C143.244 19.5991 143.514 20.2529 143.514 21.0221V30.9063H137.956V22.5413C137.956 21.7721 137.687 21.1182 137.129 20.5606C136.572 20.0029 135.918 19.7337 135.168 19.7337H132.379V30.8871H126.822L126.803 30.8678ZM132.379 16.9454H135.168C135.918 16.9454 136.572 16.6761 137.129 16.1185C137.687 15.5608 137.956 14.907 137.956 14.157V11.3687C137.956 10.6187 137.687 9.96489 137.129 9.40722C136.572 8.86878 135.918 8.59956 135.168 8.59956H132.379V16.9646V16.9454Z" fill="white"/>
<path d="M157.436 5.79199H162.993V25.3104C162.993 26.8103 162.455 28.1179 161.359 29.2141C160.263 30.3102 158.955 30.8678 157.436 30.8678H151.84C150.321 30.8678 149.013 30.3294 147.917 29.2333C146.821 28.1372 146.282 26.8295 146.282 25.3104V5.79199H151.84V25.3104C151.84 26.0603 152.109 26.7142 152.648 27.2526C153.186 27.8103 153.859 28.0795 154.628 28.0795C155.397 28.0795 156.071 27.8103 156.609 27.2526C157.147 26.6949 157.417 26.0603 157.417 25.3104V5.79199H157.436Z" fill="white"/>
<path d="M179.686 11.3504H176.916C176.666 9.48506 175.801 8.56202 174.282 8.56202C173.301 8.56202 172.571 8.79278 172.071 9.27353C171.571 9.73505 171.321 10.4466 171.321 11.3696C171.321 12.0619 171.59 12.7157 172.147 13.331L178.051 19.9654C179.147 21.1769 179.686 22.5037 179.686 23.8883V25.2921C179.686 26.792 179.147 28.0996 178.051 29.1957C176.955 30.2918 175.647 30.8495 174.128 30.8495H171.34C169.494 30.8495 168.109 30.388 167.167 29.4457C166.225 28.5035 165.763 27.1189 165.763 25.2728H168.551C168.551 25.4651 168.532 25.619 168.532 25.7344C168.532 26.4843 168.821 27.0612 169.398 27.465C169.974 27.8689 170.628 28.0612 171.321 28.0612C172.321 28.0612 173.032 27.8304 173.455 27.3497C173.897 26.8689 174.109 26.1766 174.109 25.2536C174.109 24.5421 173.84 23.8883 173.282 23.2921L167.378 16.6771C166.282 15.4656 165.744 14.1579 165.744 12.7541V11.3504C165.744 9.8312 166.282 8.52356 167.378 7.42745C168.475 6.33135 169.782 5.77368 171.301 5.77368H174.09C177.57 5.77368 179.436 7.61975 179.647 11.3311L179.686 11.3504Z" fill="white"/>
<path d="M185.242 30.8678V8.58033H179.685V5.79199H196.415V8.58033H190.857V30.8678H185.261H185.242Z" fill="white"/>
<path d="M13.9744 39.0087C13.8443 39.2689 13.506 39.5031 13.1937 39.5031H8.76979C6.37566 39.5031 4.31986 38.6444 2.57631 36.9268C0.858778 35.2093 0 33.1535 0 30.7333V8.7698C0 6.37567 0.858778 4.31984 2.57631 2.57629C4.34588 0.858764 6.40171 0 8.79584 0H11.1119C11.5803 0 11.7104 0.286255 11.4242 0.650579C8.48354 4.29382 7.05226 8.17127 7.18237 12.2569C7.31249 16.837 9.29026 20.1419 11.216 23.3688C13.1157 26.5436 14.8853 29.5363 15.0154 33.778C15.0674 36.016 14.651 37.5774 14.0005 39.0087H13.9744Z" fill="white"/>
<path d="M13.1418 0.49444C13.272 0.234208 13.6103 0 13.9225 0H18.3465C20.7406 0 22.7964 0.858764 24.54 2.57629C26.2575 4.29382 27.1163 6.34965 27.1163 8.7698V30.7333C27.1163 33.1275 26.2575 35.1833 24.54 36.9268C22.8224 38.6444 20.7666 39.5031 18.3465 39.5031H16.0304C15.562 39.5031 15.4318 39.2169 15.7181 38.8526C18.6587 35.2093 20.09 31.3319 19.9599 27.2462C19.8298 22.6662 17.852 19.3612 15.9263 16.1343C14.0266 12.9595 12.2571 9.96687 12.1269 5.72509C12.0749 3.4871 12.4913 1.92571 13.1418 0.49444Z" fill="white"/>
</svg>
