<svg width="83" height="83" viewBox="0 0 83 83" fill="none" xmlns="http://www.w3.org/2000/svg">
<rect width="83" height="83" fill="#003069"/>
<path d="M41.9744 60.0087C41.8443 60.2689 41.506 60.5031 41.1937 60.5031H36.7698C34.3757 60.5031 32.3199 59.6444 30.5763 57.9268C28.8588 56.2093 28 54.1535 28 51.7333V29.7698C28 27.3757 28.8588 25.3198 30.5763 23.5763C32.3459 21.8588 34.4017 21 36.7958 21H39.1119C39.5803 21 39.7104 21.2863 39.4242 21.6506C36.4835 25.2938 35.0523 29.1713 35.1824 33.2569C35.3125 37.837 37.2903 41.1419 39.216 44.3688C41.1157 47.5436 42.8853 50.5363 43.0154 54.778C43.0674 57.016 42.651 58.5774 42.0005 60.0087H41.9744Z" fill="white"/>
<path d="M41.1418 21.4944C41.272 21.2342 41.6103 21 41.9225 21H46.3465C48.7406 21 50.7964 21.8588 52.54 23.5763C54.2575 25.2938 55.1163 27.3496 55.1163 29.7698V51.7333C55.1163 54.1275 54.2575 56.1833 52.54 57.9268C50.8224 59.6444 48.7666 60.5031 46.3465 60.5031H44.0304C43.562 60.5031 43.4318 60.2169 43.7181 59.8526C46.6587 56.2093 48.09 52.3319 47.9599 48.2462C47.8298 43.6662 45.852 40.3612 43.9263 37.1343C42.0266 33.9595 40.2571 30.9669 40.1269 26.7251C40.0749 24.4871 40.4913 22.9257 41.1418 21.4944Z" fill="white"/>
</svg>
